<?xml version="1.0" encoding="UTF-8"?>
<svg version="1.1" xmlns="http://www.w3.org/2000/svg" width="512" height="512">
<path d="M0 0 C0.90054108 -0.00701431 1.80108215 -0.01402863 2.72891235 -0.02125549 C5.61750351 -0.03865402 8.50588962 -0.0451074 11.39453125 -0.046875 C12.38190277 -0.04754974 13.36927429 -0.04822449 14.38656616 -0.04891968 C28.87791389 -0.03317157 42.94723376 0.41971425 57.20703125 3.203125 C58.5525708 3.44458252 58.5525708 3.44458252 59.92529297 3.69091797 C109.46556968 12.65518497 153.92796357 36.65010988 190.20703125 71.203125 C191.10542725 72.05849854 191.10542725 72.05849854 192.02197266 72.93115234 C200.91828591 81.4647256 208.8799503 90.29631212 216.20703125 100.203125 C217.1886913 101.51310386 218.17046487 102.82299765 219.15234375 104.1328125 C232.20703125 121.65045675 232.20703125 121.65045675 232.20703125 125.203125 C236.52033786 124.9226947 240.83244843 124.62673952 245.14453125 124.328125 C246.35689453 124.24949219 247.56925781 124.17085938 248.81835938 124.08984375 C250.00751953 124.00605469 251.19667969 123.92226562 252.421875 123.8359375 C253.505896 123.76262207 254.58991699 123.68930664 255.70678711 123.61376953 C259.92140386 123.11931565 264.06455998 122.12367417 268.20703125 121.203125 C268.20703125 139.023125 268.20703125 156.843125 268.20703125 175.203125 C267.87703125 175.203125 267.54703125 175.203125 267.20703125 175.203125 C266.97628906 174.22472656 266.74554688 173.24632812 266.5078125 172.23828125 C264.6435915 164.6258835 262.72631209 157.72949821 258.20703125 151.203125 C257.58054687 150.26919922 257.58054687 150.26919922 256.94140625 149.31640625 C253.99696739 145.41587087 250.8129084 143.27565245 246.49609375 140.99609375 C245.01036865 140.20561646 245.01036865 140.20561646 243.49462891 139.39916992 C242.73972168 139.0044751 241.98481445 138.60978027 241.20703125 138.203125 C241.46282959 138.75846924 241.71862793 139.31381348 241.98217773 139.88598633 C251.28022724 160.24061598 258.88175438 180.86551644 263.64453125 202.765625 C263.87946289 203.84545654 264.11439453 204.92528809 264.35644531 206.0378418 C267.73568088 222.60485704 268.58572151 239.02081306 268.51953125 255.890625 C268.51679703 257.34171158 268.51679703 257.34171158 268.51400757 258.82211304 C268.46857951 273.15503477 267.95969197 287.10086417 265.20703125 301.203125 C265.04605957 302.10015137 264.88508789 302.99717773 264.71923828 303.92138672 C255.75497128 353.46166343 231.76004637 397.92405732 197.20703125 434.203125 C196.35165771 435.101521 196.35165771 435.101521 195.47900391 436.01806641 C187.47196967 444.36545883 179.24896558 452.01230048 169.953125 458.90136719 C168.2081093 460.20232128 166.48807062 461.53151999 164.76953125 462.8671875 C125.45005162 493.03829125 74.19412361 512.14507476 24.4140625 512.40625 C23.51352142 512.41326431 22.61298035 512.42027863 21.68515015 512.42750549 C18.79655899 512.44490402 15.90817288 512.4513574 13.01953125 512.453125 C12.03215973 512.45379974 11.04478821 512.45447449 10.02749634 512.45516968 C-4.46385139 512.43942157 -18.53317126 511.98653575 -32.79296875 509.203125 C-33.68999512 509.04215332 -34.58702148 508.88118164 -35.51123047 508.71533203 C-85.05150718 499.75106503 -129.51390107 475.75614012 -165.79296875 441.203125 C-166.39189941 440.63287598 -166.99083008 440.06262695 -167.60791016 439.47509766 C-175.38667348 432.01350713 -182.58161902 424.37698708 -189.1328125 415.8125 C-189.56126465 415.27278564 -189.9897168 414.73307129 -190.43115234 414.17700195 C-191.79296875 412.203125 -191.79296875 412.203125 -193.09619141 409.37573242 C-195.01295023 405.77314606 -196.52510098 403.688113 -199.79296875 401.203125 C-207.03490885 399.20891416 -214.85827757 399.84862571 -222.29296875 400.015625 C-224.37629136 400.02258884 -226.45963682 400.02459236 -228.54296875 400.02148438 C-233.62836264 400.02466133 -238.70875496 400.09556456 -243.79296875 400.203125 C-243.79296875 398.223125 -243.79296875 396.243125 -243.79296875 394.203125 C-242.55160156 393.97238281 -241.31023437 393.74164063 -240.03125 393.50390625 C-238.38912229 393.17548071 -236.74720583 392.84599769 -235.10546875 392.515625 C-234.28884766 392.36673828 -233.47222656 392.21785156 -232.63085938 392.06445312 C-227.27493189 390.95857336 -224.33278455 389.62962656 -220.79296875 385.203125 C-218.19440836 380.5257163 -216.92651159 374.2425583 -218.41210938 369.03125 C-219.41440747 366.74626143 -220.51743939 364.54215148 -221.66796875 362.328125 C-229.75334111 345.50978486 -235.2724358 327.85828404 -239.23046875 309.640625 C-239.46531982 308.56103516 -239.7001709 307.48144531 -239.94213867 306.36914062 C-243.32188327 289.80201048 -244.17165971 273.38561573 -244.10546875 256.515625 C-244.10364594 255.54823395 -244.10182312 254.5808429 -244.09994507 253.58413696 C-244.05451701 239.25121523 -243.54562947 225.30538583 -240.79296875 211.203125 C-240.55151123 209.85758545 -240.55151123 209.85758545 -240.30517578 208.48486328 C-236.54687767 187.71494105 -230.20994901 167.21376474 -220.91015625 148.2421875 C-219.69139021 144.92680296 -219.58991124 143.48730096 -220.79296875 140.203125 C-225.72852226 134.6006048 -231.66978119 133.62201027 -238.79296875 132.203125 C-239.74042969 132.01234375 -240.68789062 131.8215625 -241.6640625 131.625 C-242.36660156 131.48578125 -243.06914062 131.3465625 -243.79296875 131.203125 C-243.79296875 129.223125 -243.79296875 127.243125 -243.79296875 125.203125 C-242.28114014 125.32880859 -242.28114014 125.32880859 -240.73876953 125.45703125 C-223.11680018 127.55494828 -223.11680018 127.55494828 -206.37939453 123.92285156 C-202.9297022 120.46394367 -201.46360788 116.08821657 -199.82080078 111.56884766 C-197.92628509 107.20831155 -194.89300976 103.68635945 -191.91796875 100.015625 C-191.31742676 99.25612549 -190.71688477 98.49662598 -190.09814453 97.71411133 C-184.65712818 90.88444849 -178.87461059 84.4628204 -172.79296875 78.203125 C-172.21434082 77.59871582 -171.63571289 76.99430664 -171.03955078 76.37158203 C-163.03791575 68.02954242 -154.82919473 60.38971912 -145.5390625 53.50488281 C-143.7940468 52.20392872 -142.07400812 50.87473001 -140.35546875 49.5390625 C-101.03598912 19.36795875 -49.78006111 0.26117524 0 0 Z " fill="#FEFEFE" transform="translate(243.79296875,-0.203125)"/>
<path d="M0 0 C31.02 0 62.04 0 94 0 C94.495 2.475 94.495 2.475 95 5 C94.410979 5.03963867 93.82195801 5.07927734 93.21508789 5.12011719 C90.49603749 5.31294631 87.77958885 5.53132082 85.0625 5.75 C83.67321289 5.8428125 83.67321289 5.8428125 82.25585938 5.9375 C74.56120029 6.58547129 68.31307936 8.47917875 62.125 13.1875 C57.06078208 19.89014137 56.56495848 27.32487015 56.65942383 35.47680664 C56.65898575 36.48273865 56.65854767 37.48867065 56.65809631 38.52508545 C56.66017134 41.82031271 56.68344173 45.11501885 56.70703125 48.41015625 C56.71263177 50.70657575 56.71689971 53.00299884 56.71989441 55.29942322 C56.7313072 61.3213402 56.76074374 67.34303751 56.79400635 73.36486816 C56.82478418 79.51860585 56.83841621 85.67237928 56.85351562 91.82617188 C56.88561682 103.8842107 56.93676998 115.94208703 57 128 C69.79938623 115.29429506 82.58711637 102.57697905 95.36130619 89.8459425 C101.29362274 83.93420047 107.22960959 78.02623601 113.17456055 72.12719727 C118.35965976 66.9821228 123.53755139 61.82991849 128.70711797 56.669236 C131.44145853 53.94008382 134.17913714 51.21449198 136.92549324 48.49742699 C139.51732746 45.93300962 142.0993255 43.35906713 144.67450333 40.7779274 C146.05841206 39.39562116 147.45219481 38.02322177 148.84638977 36.65129089 C158.89883916 26.77718506 158.89883916 26.77718506 163.75 14 C163.27279117 10.90967412 163.27279117 10.90967412 161 9.1875 C153.42336937 6.18841704 146.07925971 5.51168645 138 5 C138 3.35 138 1.7 138 0 C170.67 0 203.34 0 237 0 C237.33 1.65 237.66 3.3 238 5 C236.1128125 5.25523437 236.1128125 5.25523437 234.1875 5.515625 C195.27529582 10.94621252 171.32795419 27.19162491 144.1875 54.75 C142.00534954 56.96001183 139.8216265 59.16841352 137.63484192 61.37384033 C136.28842997 62.73226356 134.94469226 64.09334534 133.60429382 65.45770264 C129.8553869 69.24621961 125.97938021 72.80163857 121.94502258 76.28329468 C118.86761175 78.9994624 115.9820978 81.89414612 113.09375 84.80859375 C112.48358032 85.42017838 111.87341064 86.031763 111.24475098 86.66188049 C109.32743835 88.58471802 107.41366298 90.51103094 105.5 92.4375 C104.18773415 93.75479059 102.87523605 95.07184986 101.5625 96.38867188 C98.37231494 99.5897861 95.18529349 102.79401865 92 106 C93.83592175 109.86745318 96.26995463 113.04980494 98.9375 116.375 C99.93629186 117.6327379 100.93498711 118.89055253 101.93359375 120.1484375 C102.44390137 120.7887793 102.95420898 121.42912109 103.47998047 122.08886719 C105.83383516 125.04838767 108.16642054 128.0244865 110.5 131 C111.41655148 132.16675716 112.3332185 133.33342357 113.25 134.5 C118.75 141.5 124.25 148.5 129.75 155.5 C130.2035083 156.07717773 130.6570166 156.65435547 131.12426758 157.24902344 C132.04343313 158.41890016 132.96254095 159.58882223 133.8815918 160.75878906 C136.13456094 163.62671157 138.38843723 166.4939099 140.64453125 169.359375 C145.78426563 175.88986103 150.90086775 182.43775268 156 189 C157.77664868 191.2845034 159.5535262 193.56882849 161.33056641 195.85302734 C162.39347037 197.21997345 163.45571729 198.58743089 164.51708984 199.95556641 C173.31270932 211.2882108 182.48050457 222.26617258 192 233 C192.95712891 234.09634766 192.95712891 234.09634766 193.93359375 235.21484375 C208.85046285 252.1023818 223.12465675 267.96585643 246.96801758 269.62133789 C250.31195818 269.80484895 253.65197187 269.91980771 257 270 C257 271.65 257 273.3 257 275 C248.14184258 275.1393965 239.2840662 275.24582003 230.42504883 275.31087303 C226.31080211 275.34210532 222.19730909 275.38442651 218.08349609 275.45263672 C214.10878155 275.51812353 210.13478906 275.55376692 206.15957642 275.56926346 C204.64772177 275.58029777 203.13590395 275.60184582 201.62435913 275.63438034 C187.2326298 275.93165601 187.2326298 275.93165601 181.43737793 270.57232666 C180.96304321 270.05345886 180.4887085 269.53459106 180 269 C179.3390332 268.2886792 178.67806641 267.5773584 177.99707031 266.84448242 C177.52881836 266.18810791 177.06056641 265.5317334 176.578125 264.85546875 C176.03406006 264.10507324 175.48999512 263.35467773 174.92944336 262.58154297 C174.37522705 261.79150879 173.82101074 261.00147461 173.25 260.1875 C172.65002197 259.3536377 172.05004395 258.51977539 171.43188477 257.66064453 C169.6070167 255.11685985 167.80037362 252.56116537 166 250 C165.47325684 249.25153809 164.94651367 248.50307617 164.40380859 247.73193359 C162.42455594 244.91689739 160.44620651 242.10123935 158.47192383 239.28271484 C152.88303665 231.34202691 146.96225014 223.66225389 141 216 C140.29061279 215.08589355 140.29061279 215.08589355 139.56689453 214.15332031 C133.735667 206.647452 127.7777347 199.25187908 121.765625 191.89038086 C117.60432478 186.78080334 113.58611342 181.57968519 109.58984375 176.33984375 C106.65282767 172.5220669 103.60927609 168.79286477 100.5625 165.0625 C96.45542865 160.03394726 92.38113423 154.98440859 88.375 149.875 C87.93414062 149.31546631 87.49328125 148.75593262 87.0390625 148.17944336 C84.65954119 145.15139783 82.31860255 142.09943085 80.01171875 139.015625 C79.51816895 138.36480957 79.02461914 137.71399414 78.51611328 137.04345703 C77.56780358 135.79189209 76.62943959 134.5327102 75.70263672 133.26513672 C74.29703301 131.36248033 74.29703301 131.36248033 72 129 C66.73058899 129 64.56300734 130.82534584 60.82021809 134.41660881 C53.70503551 142.50833795 55.62607368 154.31825442 55.85546875 164.3828125 C55.87093516 166.7668918 55.88178991 169.15100504 55.88825989 171.53512573 C55.91879286 177.78981029 56.01702525 184.04171124 56.12811279 190.29541016 C56.20715297 195.39232349 56.23775412 200.48898528 56.26580334 205.58639717 C56.30027997 211.68536682 56.35593747 217.78406704 56.41796875 223.8828125 C56.42930532 225.03803532 56.4406419 226.19325813 56.45232201 227.3834877 C56.48980426 230.66886319 56.54149121 233.95367913 56.59838867 237.23876953 C56.60847961 238.19901031 56.61857056 239.1592511 56.62896729 240.14859009 C56.79093832 248.01173033 57.49826892 256.32501943 62 263 C71.12040316 269.98584072 83.99875977 269.38158709 95 270 C94.67 271.65 94.34 273.3 94 275 C62.98 275 31.96 275 0 275 C0 273.02 0 271.04 0 269 C1.24136719 268.76925781 2.48273438 268.53851563 3.76171875 268.30078125 C5.40384646 267.97235571 7.04576292 267.64287269 8.6875 267.3125 C9.50412109 267.16361328 10.32074219 267.01472656 11.16210938 266.86132812 C16.51803686 265.75544836 19.4601842 264.42650156 23 260 C25.59856039 255.3225913 26.86645716 249.0394333 25.38085938 243.828125 C24.37856128 241.54313643 23.27552936 239.33902648 22.125 237.125 C14.03962764 220.30665986 8.52053295 202.65515904 4.5625 184.4375 C4.32764893 183.35791016 4.09279785 182.27832031 3.85083008 181.16601562 C0.47108548 164.59888548 -0.37869096 148.18249073 -0.3125 131.3125 C-0.31067719 130.34510895 -0.30885437 129.3777179 -0.30697632 128.38101196 C-0.26154826 114.04809023 0.24733928 100.10226083 3 86 C3.16097168 85.10297363 3.32194336 84.20594727 3.48779297 83.28173828 C7.24609108 62.51181605 13.58301974 42.01063974 22.8828125 23.0390625 C24.10157854 19.72367796 24.20305751 18.28417596 23 15 C18.06444649 9.3974798 12.12318756 8.41888527 5 7 C4.05253906 6.80921875 3.10507812 6.6184375 2.12890625 6.421875 C1.07509766 6.21304688 1.07509766 6.21304688 0 6 C0 4.02 0 2.04 0 0 Z " fill="#030303" transform="translate(0,125)"/>
<path d="M0 0 C1.9375 0.0625 1.9375 0.0625 4 1 C4.185625 1.928125 4.37125 2.85625 4.5625 3.8125 C5.65466408 7.09857224 5.65466408 7.09857224 8.16786003 8.16028118 C14.83005477 10.56647093 20.70986923 11.63788817 27.77392578 11.73950195 C29.31144343 11.78225864 29.31144343 11.78225864 30.88002205 11.8258791 C34.25340696 11.90941623 37.62583408 11.95957525 41 12 C42.73698277 12.02274805 42.73698277 12.02274805 44.50905609 12.04595566 C52.84356509 12.14254797 61.17770644 12.16566232 69.5126853 12.16725707 C71.65458896 12.1679814 73.79648668 12.17014097 75.93838882 12.17275429 C83.49522543 12.18194203 91.05204471 12.18609835 98.60888672 12.18530273 C104.75409575 12.18477232 110.89924082 12.19178632 117.04443359 12.20581055 C159.41322107 12.36218967 159.41322107 12.36218967 201.7578125 11.11328125 C202.6074847 11.07433432 203.45715691 11.03538738 204.33257675 10.99526024 C212.50027702 10.60552308 219.9405243 9.7909946 228 8 C228 25.82 228 43.64 228 62 C227.67 62 227.34 62 227 62 C226.76925781 61.02160156 226.53851563 60.04320312 226.30078125 59.03515625 C224.43267809 51.406906 222.49245913 44.5576493 218 38 C217.64035156 37.40058594 217.28070313 36.80117187 216.91015625 36.18359375 C213.71470873 31.62012716 209.33208587 29.22467597 204.5 26.6875 C203.56740356 26.18077759 203.56740356 26.18077759 202.6159668 25.66381836 C191.80114298 20.34061306 179.09845012 20.6750496 167.3125 20.75 C166.08466797 20.74226563 164.85683594 20.73453125 163.59179688 20.7265625 C148.78085385 20.55299586 148.78085385 20.55299586 136 27 C132.20146895 33.28722381 131.8531596 38.6827467 131.86628723 45.89312744 C131.8628889 47.25573547 131.8628889 47.25573547 131.85942191 48.64587092 C131.85308063 51.69654398 131.85391136 54.74717263 131.85473633 57.79785156 C131.85174488 59.98247841 131.84834239 62.16710473 131.84455872 64.35173035 C131.83571217 70.29192666 131.8333803 76.23210857 131.83274293 82.17231083 C131.83179404 87.12998887 131.82811589 92.08766355 131.82457083 97.0453403 C131.81688903 108.07453532 131.81390244 119.10372362 131.81457619 130.13292113 C131.81461614 130.79465774 131.8146561 131.45639436 131.81469727 132.13818359 C131.81475859 133.1320035 131.81475859 133.1320035 131.81482115 134.14590058 C131.81520214 144.21072445 131.80741005 154.27551729 131.79418945 164.34033203 C131.7788845 176.03210027 131.77043115 187.72384558 131.77115268 199.41562438 C131.77140766 205.60300883 131.76855601 211.79035356 131.75797462 217.9777298 C131.74829193 223.7987749 131.7482157 229.61974233 131.75549126 235.44079018 C131.75653694 237.57568538 131.75417518 239.71058543 131.7481308 241.84547234 C131.74040555 244.76338542 131.74505936 247.68103061 131.75276184 250.59893799 C131.7450465 251.86141338 131.7450465 251.86141338 131.73717529 253.14939332 C131.78035505 260.56942062 132.9430027 267.62471853 137 274 C144.70663696 280.30543024 153.3905658 280.46284766 162.9375 281.125 C164.67870117 281.25455078 164.67870117 281.25455078 166.45507812 281.38671875 C169.30297446 281.59767403 172.15118513 281.80190466 175 282 C175 283.65 175 285.3 175 287 C136.39 287 97.78 287 58 287 C58 285.35 58 283.7 58 282 C59.00417969 281.95101563 60.00835937 281.90203125 61.04296875 281.8515625 C80.10279561 281.5904965 80.10279561 281.5904965 96.640625 273.51171875 C101.95182323 267.60530003 101.14812348 258.20987289 101.14044189 250.75283813 C101.14341302 249.84257508 101.14638414 248.93231202 101.1494453 247.99446523 C101.15809166 244.95544787 101.15963708 241.91647008 101.16113281 238.87744141 C101.16576375 236.69399431 101.17078879 234.51054802 101.17617798 232.32710266 C101.18927479 226.40354838 101.19574128 220.48000542 101.20018864 214.55643892 C101.20312291 210.85419723 101.20722833 207.15195862 101.21169281 203.44971848 C101.22535872 191.86171153 101.2350306 180.27371164 101.2388947 168.6856972 C101.23933679 167.36725892 101.23977889 166.04882064 101.24023438 164.69042969 C101.2404558 164.0298419 101.24067723 163.36925411 101.24090537 162.68864851 C101.24460838 152.64917517 101.25943345 142.60976189 101.28125 132.5703125 C101.30652844 120.89901976 101.32142701 109.22777425 101.32293582 97.55645311 C101.32398345 91.38303025 101.32988294 85.20970351 101.34775543 79.03630447 C101.36423934 73.22996433 101.36638997 67.42379257 101.35761642 61.61743736 C101.35684631 59.48940645 101.36118538 57.36136646 101.37107468 55.23335838 C101.38380676 52.32241564 101.37791042 49.41206821 101.36749268 46.50112915 C101.37554908 45.66443809 101.38360548 44.82774703 101.39190602 43.9657017 C101.33658164 37.3299796 100.24833923 30.922841 96.125 25.5625 C89.78584228 20.90135462 82.3478495 20.8405126 74.7421875 20.796875 C73.95788361 20.79117493 73.17357971 20.78547485 72.36550903 20.77960205 C70.70983206 20.77019211 69.05413669 20.76363408 67.3984375 20.75976562 C64.90330021 20.75010952 62.40900525 20.71906907 59.9140625 20.6875 C48.72789146 20.61224511 38.08317819 21.13586303 28.125 26.875 C27.28195312 27.34679687 26.43890625 27.81859375 25.5703125 28.3046875 C7.54251465 40.19536268 2.19306701 62.07059914 -2 82 C-4.475 82.495 -4.475 82.495 -7 83 C-6.54473585 76.79143782 -6.08611556 70.58313033 -5.625 64.375 C-5.55686096 63.45674438 -5.48872192 62.53848877 -5.41851807 61.59240723 C-4.59053988 50.46631309 -3.71143319 39.3517548 -2.6315918 28.24682617 C-1.96688762 21.19982931 -1.60175218 14.14815566 -1.34130859 7.07519531 C-1.10193632 1.10193632 -1.10193632 1.10193632 0 0 Z " fill="#020202" transform="translate(284,113)"/>
<path d="M0 0 C2.39268679 4.25642869 2.27302475 8.16907652 2.24050903 12.94696045 C2.24221788 13.86101032 2.24392673 14.7750602 2.24568737 15.71680856 C2.24898726 18.78621981 2.23797026 21.8554135 2.22705078 24.92480469 C2.22648678 27.12241104 2.22680302 29.32001777 2.22793579 31.5176239 C2.22851072 37.49036992 2.2167337 43.46303596 2.20278788 49.43576336 C2.19030388 55.67512802 2.18911186 61.91449441 2.18673706 68.15386963 C2.18122276 78.62847182 2.1687217 89.10304922 2.15087891 99.57763672 C2.1325201 110.3663722 2.1183636 121.15509971 2.10986328 131.94384766 C2.10933783 132.60889678 2.10881239 133.2739459 2.10827102 133.95914802 C2.10566094 137.29551332 2.10313803 140.63187868 2.10064721 143.96824408 C2.07972975 171.64551653 2.0445405 199.3227562 2 227 C-10.54369839 210.57619233 -16.06917285 185.41808863 -20.375 165.625 C-20.6136377 164.53388916 -20.85227539 163.44277832 -21.09814453 162.31860352 C-24.52053791 145.69784781 -25.37892817 129.242948 -25.3125 112.3125 C-25.31067719 111.34510895 -25.30885437 110.3777179 -25.30697632 109.38101196 C-25.26154826 95.04809023 -24.75266072 81.10226083 -22 67 C-21.83902832 66.10297363 -21.67805664 65.20594727 -21.51220703 64.28173828 C-12.06333563 12.06333563 -12.06333563 12.06333563 0 0 Z " fill="#FEFEFE" transform="translate(25,144)"/>
</svg>
